<svg version="1.0" xmlns="http://www.w3.org/2000/svg"
     width="250" height="200px" viewBox="0 0 250 200"
     preserveAspectRatio="xMidYMid meet">
    <g transform="translate(-10,400) scale(0.0200000,-0.020000)"
       fill="#B54FE9" stroke="none">
        <path d="M7110 18929 c-229 -9 -736 -26 -1220 -40 -465 -13 -1010 -36 -1016
-42 -8 -8 297 -20 1196 -47 627 -19 955 -33 964 -41 5 -5 4 -14 -3 -23 -11
-13 -103 -61 -191 -99 -19 -9 -62 -28 -95 -43 l-60 -28 -365 -12 c-201 -7
-525 -18 -720 -24 -195 -6 -452 -15 -570 -20 -118 -5 -296 -10 -395 -11 -99
-1 -225 -4 -280 -8 -87 -6 -94 -8 -55 -13 60 -9 442 -26 875 -38 193 -6 454
-15 580 -20 127 -5 312 -10 412 -10 187 0 213 -3 213 -25 0 -16 -240 -205
-283 -224 -27 -11 -47 -11 -137 3 -96 15 -111 15 -175 0 -138 -31 -160 -35
-195 -29 -56 10 -82 38 -88 93 -3 41 0 53 22 79 14 17 26 34 26 37 0 17 -62 2
-98 -24 -27 -19 -54 -30 -75 -30 -29 0 -36 -5 -54 -42 -11 -24 -26 -66 -33
-95 -12 -46 -11 -61 5 -128 12 -47 15 -78 10 -84 -9 -8 -176 -14 -1050 -41
-422 -13 -738 -30 -748 -40 -5 -4 90 -11 210 -14 120 -3 351 -11 513 -16 162
-6 428 -15 590 -20 162 -5 426 -15 585 -22 160 -7 403 -13 540 -12 l250 1 94
32 c52 17 123 45 158 61 36 17 66 30 68 30 2 0 41 17 87 39 125 58 151 68 308
121 180 60 309 98 470 139 69 18 147 39 173 47 67 20 78 11 155 -127 70 -124
145 -227 267 -369 224 -259 231 -266 315 -329 81 -61 168 -121 176 -121 11 0
74 -53 74 -62 0 -22 -170 54 -378 169 l-63 35 -262 -11 c-144 -6 -347 -13
-452 -16 -104 -3 -309 -10 -455 -15 -146 -5 -499 -17 -785 -25 -286 -9 -554
-20 -595 -24 l-75 -7 125 -7 c166 -9 619 -25 1070 -38 718 -20 1003 -33 1007
-46 2 -6 -6 -18 -19 -27 -95 -67 -144 -107 -216 -179 l-83 -82 -212 -7 c-237
-8 -1132 -33 -1682 -48 -766 -20 -1065 -33 -1053 -46 3 -2 196 -8 429 -14 510
-12 1013 -25 1479 -41 190 -6 459 -14 599 -18 194 -4 255 -9 259 -19 9 -29
-171 -173 -298 -237 -131 -67 -294 -175 -422 -280 l-86 -72 -124 -6 c-67 -4
-328 -12 -578 -17 -250 -5 -495 -12 -545 -15 -49 -3 -277 -10 -505 -15 -610
-14 -1120 -31 -1160 -39 -46 -10 441 -28 1415 -51 226 -6 536 -15 690 -20 154
-5 348 -10 431 -10 177 0 190 -6 146 -63 -15 -19 -70 -91 -122 -159 -97 -126
-180 -270 -180 -313 0 -13 -11 -32 -24 -43 -23 -17 -51 -19 -388 -26 -613 -11
-1039 -29 -1026 -42 3 -2 173 -8 379 -14 686 -18 1003 -31 1016 -42 8 -6 13
-33 13 -65 0 -80 36 -216 82 -311 22 -46 37 -89 35 -96 -4 -11 -71 -15 -319
-20 -172 -3 -527 -11 -788 -16 -261 -6 -725 -15 -1030 -20 -305 -6 -710 -14
-900 -20 -190 -5 -464 -10 -610 -11 -146 -1 -328 -4 -405 -8 l-140 -6 95 -8
c111 -8 696 -24 1195 -32 193 -3 523 -10 735 -15 212 -6 639 -15 950 -20 804
-14 1001 -21 1006 -35 3 -7 -70 -88 -161 -181 -92 -93 -204 -219 -250 -280
-47 -61 -90 -116 -97 -121 -8 -6 -122 -13 -278 -17 -146 -4 -391 -11 -545 -16
-154 -5 -527 -17 -830 -25 -561 -16 -759 -24 -752 -31 4 -5 383 -18 1077 -39
989 -29 1185 -36 1198 -40 23 -8 12 -35 -63 -146 -111 -165 -157 -214 -229
-248 -337 -161 -432 -215 -603 -343 -41 -30 -45 -31 -165 -35 -68 -2 -343 -10
-613 -18 -269 -8 -596 -17 -725 -20 -299 -8 -912 -34 -917 -39 -8 -7 600 -29
1337 -46 223 -6 502 -15 620 -20 118 -5 221 -9 228 -10 27 0 8 -32 -75 -132
-278 -329 -661 -726 -738 -763 -35 -18 -55 -19 -165 -15 -313 11 -885 -6 -970
-30 -30 -9 86 -17 355 -26 105 -3 208 -9 230 -13 l40 -6 -2 -50 c-2 -28 -5
-151 -7 -275 -6 -275 -8 -296 -56 -492 -71 -286 -81 -380 -58 -531 7 -47 8
-81 2 -86 -9 -9 -288 -20 -1009 -41 -467 -13 -867 -31 -890 -40 -21 -8 64 -11
700 -30 204 -6 505 -15 670 -21 165 -5 395 -12 511 -16 117 -3 357 -1 535 6
493 18 905 31 1323 41 208 5 381 12 383 14 12 12 -323 29 -902 46 -708 20
-1031 31 -1043 35 -20 7 -14 53 24 164 63 190 115 275 267 438 57 61 153 180
212 265 170 242 405 463 820 774 135 101 399 287 460 324 22 13 76 47 120 76
156 100 387 222 685 360 160 74 531 259 602 301 268 155 553 368 811 605 81
74 86 64 -68 164 -54 36 -117 80 -140 97 -69 53 -168 153 -164 166 2 6 31 -7
72 -34 175 -118 384 -236 552 -312 66 -30 165 -75 220 -100 167 -76 526 -257
588 -296 96 -62 78 -72 -144 -86 -90 -6 -216 -15 -279 -21 -63 -5 -176 -14
-251 -20 -132 -9 -192 -21 -173 -33 6 -3 80 -11 165 -16 228 -16 546 -40 614
-46 91 -9 105 -14 105 -33 0 -9 -64 -96 -141 -192 -152 -188 -260 -344 -305
-437 -15 -32 -58 -147 -94 -255 -37 -108 -74 -208 -83 -221 -14 -22 -24 -24
-129 -31 -62 -3 -243 -11 -403 -16 -159 -5 -400 -14 -535 -20 -135 -5 -373
-15 -530 -21 -284 -11 -389 -20 -360 -32 8 -3 170 -11 360 -16 190 -6 453 -15
585 -20 132 -6 382 -15 555 -22 180 -6 320 -16 328 -22 17 -14 8 -37 -45 -115
-150 -219 -299 -399 -496 -597 -182 -182 -185 -187 -163 -219 9 -14 48 -44 88
-67 114 -66 145 -88 247 -179 53 -46 98 -87 101 -90 3 -4 53 -45 112 -91 123
-98 211 -152 323 -199 76 -33 86 -34 201 -35 115 0 122 1 162 28 73 48 63 71
-113 282 -135 162 -172 216 -195 286 -12 35 -26 69 -31 76 -6 6 -57 14 -117
18 -59 4 -116 11 -127 15 -18 6 -16 8 10 13 17 3 74 9 128 13 110 7 110 8 121
89 23 181 180 489 370 725 172 213 504 552 799 814 42 38 89 80 103 93 14 13
37 31 50 40 55 36 38 40 -218 53 -267 14 -327 19 -307 30 22 13 227 30 471 40
l217 8 58 43 c90 66 169 153 205 227 31 64 33 73 33 182 0 98 -4 125 -24 180
-56 148 -175 319 -345 498 -76 80 -522 490 -740 681 -119 104 -232 207 -288
262 l-56 57 -79 6 c-43 4 -186 11 -318 16 -375 16 -557 38 -434 54 41 5 242
15 709 36 l195 8 110 50 c225 101 389 166 603 238 78 26 142 51 142 55 0 11
-78 18 -345 29 -318 14 -395 19 -395 31 0 5 1 9 3 9 2 0 28 4 58 10 30 5 160
14 289 20 129 5 325 14 435 20 713 36 725 37 828 76 148 57 300 204 395 383
38 71 46 80 62 71 10 -5 21 -18 24 -27 13 -44 35 -219 41 -333 12 -245 44
-453 87 -575 56 -160 123 -236 268 -307 107 -53 98 -50 425 -159 412 -138 544
-188 669 -251 101 -51 186 -113 186 -136 0 -16 -74 -209 -172 -451 -17 -41
-26 -77 -21 -82 5 -5 71 86 152 209 79 119 151 223 159 230 9 6 25 12 36 12
47 0 177 82 269 169 101 96 113 170 43 274 -10 15 -16 35 -14 45 3 9 121 190
262 401 141 211 256 392 256 403 0 17 -14 18 -240 18 -211 0 -241 2 -247 16
-5 14 12 67 47 149 5 11 59 139 120 285 61 146 115 274 120 285 5 11 39 92 75
180 37 88 72 170 78 182 6 13 8 25 5 29 -5 5 -122 -137 -234 -282 -35 -47
-372 -479 -401 -514 -6 -8 -32 -40 -56 -70 -24 -30 -61 -78 -83 -106 -21 -28
-88 -113 -148 -190 -207 -263 -237 -304 -231 -314 4 -6 101 -10 265 -10 259 0
290 -3 290 -23 0 -16 -91 -257 -126 -334 -8 -17 -14 -35 -14 -41 0 -16 -40
-101 -50 -107 -11 -7 -11 -4 -13 99 l-2 70 -155 26 c-144 24 -162 29 -245 74
-127 69 -401 258 -667 460 -81 62 -81 62 -90 300 -4 116 -12 234 -18 261 -5
28 -13 64 -16 80 -3 17 -12 51 -21 77 -21 68 -8 76 39 23 22 -25 46 -45 53
-45 8 0 35 25 61 55 26 30 62 61 81 70 32 15 38 15 99 -5 l65 -22 72 42 c160
94 294 211 346 302 51 88 65 150 65 278 0 162 -32 303 -102 453 -48 102 -77
146 -139 211 -169 174 -375 224 -748 181 -137 -15 -288 -29 -520 -46 -77 -6
-146 -15 -154 -19 -26 -14 50 -28 214 -40 176 -12 195 -15 195 -34 0 -6 -42
-55 -92 -108 -126 -131 -155 -136 -252 -48 -85 76 -74 74 -306 66 l-206 -7
-54 36 c-68 46 -165 130 -308 270 -63 60 -119 113 -127 117 -7 4 -136 15 -286
23 -151 8 -287 18 -304 22 l-30 6 29 8 c16 4 124 11 240 15 116 4 219 11 230
16 16 9 -17 45 -247 273 -219 218 -270 265 -298 269 -19 3 -124 8 -234 11
-191 6 -343 19 -375 32 -25 11 68 21 190 22 163 1 310 12 304 23 -14 23 -265
158 -354 191 -134 50 -170 52 -570 36z"/>
    </g>
</svg>
