<svg version="1.1" xmlns="http://www.w3.org/2000/svg" xmlns:xlink="http://www.w3.org/1999/xlink" width="50px" height="50px" viewBox="0,0,256,256"><g fill="#e625e4" fill-rule="nonzero" stroke="none" stroke-width="1" stroke-linecap="butt" stroke-linejoin="miter" stroke-miterlimit="10" stroke-dasharray="" stroke-dashoffset="0" font-family="none" font-weight="none" font-size="none" text-anchor="none" style="mix-blend-mode: normal"><g transform="scale(5.12,5.12)"><path d="M18.70703,46.74219c-0.15625,0 -0.31641,-0.03516 -0.46484,-0.11328c-0.42578,-0.22656 -0.62891,-0.71875 -0.48828,-1.17578l5.01953,-16.45312h-10.49609c-0.38672,0 -0.73437,-0.22266 -0.90234,-0.56641c-0.16406,-0.34766 -0.11719,-0.75781 0.12109,-1.05859l19.05078,-23.74609c0.30078,-0.37109 0.81641,-0.48047 1.23828,-0.26172c0.42578,0.21875 0.63281,0.70312 0.50391,1.16016l-4.68359,16.47266h10.10547c0.38281,0 0.73438,0.21875 0.89844,0.56641c0.16797,0.34766 0.12109,0.75781 -0.11719,1.05859l-19.00391,23.74219c-0.19531,0.24609 -0.48437,0.375 -0.78125,0.375z"></path></g></g></svg>
