<svg version="1.1" xmlns="http://www.w3.org/2000/svg" xmlns:xlink="http://www.w3.org/1999/xlink" width="50px" height="50px" viewBox="0,0,256,256"><g fill="#ffffff" fill-rule="nonzero" stroke="none" stroke-width="1" stroke-linecap="butt" stroke-linejoin="miter" stroke-miterlimit="10" stroke-dasharray="" stroke-dashoffset="0" font-family="none" font-weight="none" font-size="none" text-anchor="none" style="mix-blend-mode: normal"><g transform="scale(5.12,5.12)"><path d="M34.625,3.03125c-0.78125,0.01172 -1.64453,0.18359 -2.71875,0.46875c-3.08203,0.8125 -20.8125,5.71875 -20.8125,5.71875c-0.03125,0.00781 -0.0625,0.01953 -0.09375,0.03125c-2.80859,1.05859 -4.57812,2.05469 -5.65625,3.5c-1.07031,1.4375 -1.30859,3.16406 -1.3125,5.21875c0,0.01172 0,0.01953 0,0.03125v0.625c-0.01172,0.125 -0.03125,0.25 -0.03125,0.375v21.375c0,3.08984 2.53516,5.625 5.625,5.625h30.75c3.08984,0 5.625,-2.53516 5.625,-5.625v-21.53125c0,-3.1875 -2.85156,-5.84375 -6,-5.84375h-30c-1.12109,0 -2.12891,0.32031 -2.96875,0.84375c0.72656,-0.89453 2.09766,-1.73828 4.59375,-2.6875c0.02734,-0.01172 0.03516,-0.01953 0.0625,-0.03125c0.11328,-0.03125 17.73828,-4.90234 20.71875,-5.6875c0.99219,-0.26172 1.73438,-0.39844 2.25,-0.40625c0.51563,-0.00781 0.75781,0.07031 0.875,0.15625c0.11719,0.08594 0.21484,0.25391 0.3125,0.65625c0.09766,0.40234 0.15625,1.01563 0.15625,1.8125v3.34375h2v-3.34375c0,-0.86719 -0.05469,-1.60156 -0.21875,-2.28125c-0.16406,-0.67969 -0.48437,-1.34766 -1.0625,-1.78125c-0.57812,-0.43359 -1.3125,-0.57422 -2.09375,-0.5625zM10,15h30c1.94922,0 4,1.9375 4,3.84375v21.53125c0,2.00781 -1.61719,3.625 -3.625,3.625h-30.75c-2.01172,0 -3.625,-1.61328 -3.625,-3.625v-19.90625l0.03125,-1.65625c0.05859,-0.67969 0.40625,-1.64844 1.0625,-2.40625c0.71484,-0.82812 1.69141,-1.40625 2.90625,-1.40625zM38.5,27c-1.38281,0 -2.5,1.11719 -2.5,2.5c0,1.38281 1.11719,2.5 2.5,2.5c1.37891,0 2.5,-1.11719 2.5,-2.5c0,-1.38281 -1.12109,-2.5 -2.5,-2.5z"></path></g></g></svg>
